# xmcd
#
# Track frame offsets: 
#        183
#        17220
#        36175
#        46533
#        60208
#        75700
#        92200
#        102113
#        119925
#        136433
#        147755
#        162420
#        177200
#        190080
#        206908
#        218340
#
# Disc length: 3238 seconds
#
# Revision: 3
# Processed by: cddbd v1.5PL3 Copyright (c) Steve Scherf et al.
# Submitted via: ExactAudioCopy v0.90b4
#
DISCID=da0ca410
DTITLE=MPB 4 - MPB 4 Canta Milton
DYEAR=1993
DGENRE=MPB
TTITLE0=Milagre dos Peixes
TTITLE1=Fé Cega, Faca Amolada
TTITLE2=Nada Será Como Antes[part. Quarteto em Cy]
TTITLE3=Unencuonter(Canção da America)
TTITLE4=Sentinela
TTITLE5=Cora  o de Estudante
TTITLE6=Cravo e Canela
TTITLE7=Vera Cruz
TTITLE8=Beco da Mota
TTITLE9=Canções e Momentos
TTITLE10=Maria, Maria
TTITLE11=Moreno
TTITLE12=Cio da Terra[part. Quarteto em Cy]
TTITLE13=Paula e Bebeto
TTITLE14=San Vicente
TTITLE15=Travessia/Cais(Vinheta)
EXTD=YEAR: 1993
EXTT0=
EXTT1=
EXTT2=
EXTT3=
EXTT4=
EXTT5=
EXTT6=
EXTT7=
EXTT8=
EXTT9=
EXTT10=
EXTT11=
EXTT12=
EXTT13=
EXTT14=
EXTT15=
PLAYORDER=
